<svg xmlns="http://www.w3.org/2000/svg" viewBox="0 0 1200 400">
  <!-- Background -->
  <rect width="1200" height="400" fill="#171614"/>

  <!-- Floor -->
  <rect y="312" width="1200" height="88" fill="#2D2520"/>
  <rect y="312" width="1200" height="8" fill="#3D3530"/>
  <!-- Floor texture -->
  <rect x="96" y="336" width="8" height="8" fill="#352E28" opacity="0.4"/>
  <rect x="280" y="344" width="8" height="8" fill="#352E28" opacity="0.3"/>
  <rect x="480" y="352" width="8" height="8" fill="#352E28" opacity="0.4"/>
  <rect x="640" y="336" width="8" height="8" fill="#352E28" opacity="0.3"/>
  <rect x="800" y="360" width="8" height="8" fill="#352E28" opacity="0.4"/>
  <rect x="1040" y="344" width="8" height="8" fill="#352E28" opacity="0.3"/>
  <rect x="160" y="368" width="8" height="8" fill="#352E28" opacity="0.3"/>
  <rect x="560" y="376" width="8" height="8" fill="#352E28" opacity="0.4"/>
  <rect x="920" y="368" width="8" height="8" fill="#352E28" opacity="0.3"/>

  <!-- ========== WINDOW ========== -->
  <g transform="translate(72,24)">
    <!-- Curtain left -->
    <rect x="-16" y="0" width="16" height="208" fill="#8A3B2E" opacity="0.7"/>
    <rect x="-8" y="0" width="8" height="208" fill="#6B2D22" opacity="0.5"/>
    <!-- Curtain right -->
    <rect x="264" y="0" width="16" height="208" fill="#8A3B2E" opacity="0.7"/>
    <rect x="264" y="0" width="8" height="208" fill="#6B2D22" opacity="0.5"/>

    <!-- Window frame -->
    <rect width="264" height="200" rx="2" fill="#5A4A3E"/>
    <!-- Glass panes -->
    <rect x="8" y="8" width="120" height="88" fill="#233642"/>
    <rect x="136" y="8" width="120" height="88" fill="#233642"/>
    <rect x="8" y="104" width="120" height="88" fill="#233642"/>
    <rect x="136" y="104" width="120" height="88" fill="#233642"/>
    <!-- Dividers -->
    <rect x="128" y="8" width="8" height="184" fill="#5A4A3E"/>
    <rect x="8" y="96" width="248" height="8" fill="#5A4A3E"/>

    <!-- Stars (upper left pane) -->
    <rect x="24" y="24" width="8" height="8" fill="#FFD700" opacity="0.9"/>
    <rect x="72" y="40" width="8" height="8" fill="#FFD700" opacity="0.7"/>
    <rect x="48" y="64" width="8" height="8" fill="#FFD700" opacity="0.6"/>
    <rect x="96" y="16" width="8" height="8" fill="#FFD700" opacity="0.8"/>
    <rect x="104" y="56" width="8" height="8" fill="#FFD700" opacity="0.5"/>
    <!-- Stars (upper right pane) -->
    <rect x="152" y="32" width="8" height="8" fill="#FFD700" opacity="0.8"/>
    <rect x="192" y="16" width="8" height="8" fill="#FFD700" opacity="0.7"/>
    <rect x="176" y="56" width="8" height="8" fill="#FFD700" opacity="0.6"/>
    <rect x="232" y="48" width="8" height="8" fill="#FFD700" opacity="0.9"/>
    <rect x="216" y="72" width="8" height="8" fill="#FFD700" opacity="0.5"/>
    <!-- Stars (lower left pane) -->
    <rect x="32" y="120" width="8" height="8" fill="#FFD700" opacity="0.6"/>
    <rect x="80" y="136" width="8" height="8" fill="#FFD700" opacity="0.7"/>
    <rect x="56" y="160" width="8" height="8" fill="#FFD700" opacity="0.5"/>
    <rect x="104" y="152" width="8" height="8" fill="#FFD700" opacity="0.8"/>
    <!-- Stars (lower right pane) -->
    <rect x="152" y="112" width="8" height="8" fill="#FFD700" opacity="0.7"/>
    <rect x="200" y="128" width="8" height="8" fill="#FFD700" opacity="0.6"/>
    <rect x="168" y="160" width="8" height="8" fill="#FFD700" opacity="0.8"/>
    <rect x="240" y="144" width="8" height="8" fill="#FFD700" opacity="0.5"/>
    <rect x="224" y="176" width="8" height="8" fill="#FFD700" opacity="0.7"/>

    <!-- Moon (crescent, upper right pane) -->
    <rect x="208" y="16" width="8" height="8" fill="#F5F0E7"/>
    <rect x="216" y="16" width="8" height="8" fill="#F5F0E7"/>
    <rect x="200" y="24" width="8" height="8" fill="#F5F0E7"/>
    <rect x="200" y="32" width="8" height="8" fill="#F5F0E7"/>
    <rect x="200" y="40" width="8" height="8" fill="#F5F0E7"/>
    <rect x="208" y="48" width="8" height="8" fill="#F5F0E7"/>
    <rect x="216" y="48" width="8" height="8" fill="#F5F0E7"/>
    <!-- Moon inner cutout -->
    <rect x="208" y="24" width="8" height="24" fill="#233642"/>
    <rect x="216" y="24" width="8" height="24" fill="#233642"/>

    <!-- Window sill -->
    <rect x="-8" y="192" width="280" height="16" fill="#5A4A3E"/>
  </g>

  <!-- Window light on floor -->
  <rect x="80" y="312" width="264" height="48" fill="#233642" opacity="0.06"/>

  <!-- ========== WALL CLOCK ========== -->
  <g transform="translate(376,64)">
    <rect x="8" y="0" width="32" height="8" fill="#3D3530"/>
    <rect x="0" y="8" width="48" height="32" fill="#3D3530"/>
    <rect x="8" y="40" width="32" height="8" fill="#3D3530"/>
    <!-- Clock inner -->
    <rect x="16" y="8" width="16" height="8" fill="#F5F0E7"/>
    <rect x="8" y="16" width="32" height="16" fill="#F5F0E7"/>
    <rect x="16" y="32" width="16" height="8" fill="#F5F0E7"/>
    <!-- Clock hands -->
    <rect x="24" y="16" width="8" height="8" fill="#171614"/>
    <rect x="24" y="24" width="8" height="8" fill="#171614"/>
    <rect x="32" y="24" width="8" height="8" fill="#171614"/>
    <rect x="22" y="22" width="4" height="4" fill="#D4724E"/>
  </g>

  <!-- ========== WALL POSTER ========== -->
  <g transform="translate(1048,48)">
    <rect width="104" height="80" rx="2" fill="#3D3530"/>
    <rect x="8" y="8" width="88" height="64" fill="#233642"/>
    <!-- Robot face on poster -->
    <rect x="32" y="20" width="8" height="8" fill="#4EC9B0"/>
    <rect x="56" y="20" width="8" height="8" fill="#4EC9B0"/>
    <rect x="28" y="36" width="40" height="8" fill="#D9D1C5"/>
    <rect x="36" y="44" width="24" height="8" fill="#D9D1C5"/>
    <rect x="40" y="52" width="16" height="4" fill="#D4724E"/>
  </g>

  <!-- ========== BOOKSHELF ========== -->
  <g transform="translate(1032,144)">
    <rect width="128" height="160" fill="#3D3530"/>
    <rect x="8" y="8" width="112" height="44" fill="#2D2520"/>
    <rect x="8" y="60" width="112" height="44" fill="#2D2520"/>
    <rect x="8" y="112" width="112" height="40" fill="#2D2520"/>
    <!-- Books shelf 1 -->
    <rect x="16" y="24" width="12" height="28" fill="#8A3B2E"/>
    <rect x="32" y="20" width="12" height="32" fill="#569CD6"/>
    <rect x="48" y="24" width="8" height="28" fill="#D4724E"/>
    <rect x="60" y="16" width="12" height="36" fill="#4EC9B0"/>
    <rect x="76" y="24" width="10" height="28" fill="#8A3B2E"/>
    <rect x="92" y="20" width="12" height="32" fill="#233642"/>
    <!-- Books shelf 2 -->
    <rect x="16" y="76" width="14" height="28" fill="#D4724E"/>
    <rect x="34" y="72" width="10" height="32" fill="#569CD6"/>
    <rect x="48" y="76" width="12" height="28" fill="#233642"/>
    <rect x="64" y="72" width="16" height="32" fill="#8A3B2E"/>
    <rect x="84" y="76" width="10" height="28" fill="#4EC9B0"/>
    <!-- Plant on shelf 3 -->
    <rect x="56" y="120" width="8" height="24" fill="#3B7A5C"/>
    <rect x="48" y="112" width="8" height="16" fill="#4EC9B0"/>
    <rect x="64" y="112" width="8" height="16" fill="#4EC9B0"/>
    <rect x="56" y="108" width="8" height="12" fill="#4EC9B0"/>
    <rect x="44" y="136" width="28" height="16" fill="#8A3B2E"/>
  </g>

  <!-- ========== DESK ========== -->
  <g transform="translate(384,256)">
    <rect width="560" height="8" fill="#5A4A3E"/>
    <rect y="8" width="560" height="16" fill="#3D3530"/>
    <rect y="24" width="560" height="8" fill="#2D2520"/>
    <rect x="24" y="32" width="16" height="24" fill="#3D3530"/>
    <rect x="520" y="32" width="16" height="24" fill="#3D3530"/>
    <!-- Drawer handles -->
    <rect x="200" y="14" width="24" height="4" fill="#5A4A3E"/>
    <rect x="340" y="14" width="24" height="4" fill="#5A4A3E"/>
  </g>

  <!-- Monitor glow on desk -->
  <rect x="592" y="256" width="144" height="8" fill="#4EC9B0" opacity="0.06"/>

  <!-- ========== MONITOR ========== -->
  <g transform="translate(600,128)">
    <rect width="128" height="120" rx="4" fill="#2A2A2A"/>
    <rect x="4" y="4" width="120" height="104" rx="2" fill="#0C1810"/>
    <!-- Code lines -->
    <rect x="12" y="12" width="8" height="6" fill="#D4724E" opacity="0.8"/>
    <rect x="24" y="12" width="48" height="6" fill="#4EC9B0" opacity="0.8"/>
    <rect x="20" y="24" width="64" height="6" fill="#569CD6" opacity="0.7"/>
    <rect x="20" y="36" width="40" height="6" fill="#4EC9B0" opacity="0.8"/>
    <rect x="64" y="36" width="32" height="6" fill="#D9D1C5" opacity="0.4"/>
    <rect x="12" y="48" width="8" height="6" fill="#D4724E" opacity="0.8"/>
    <rect x="24" y="48" width="56" height="6" fill="#569CD6" opacity="0.7"/>
    <rect x="20" y="60" width="72" height="6" fill="#4EC9B0" opacity="0.8"/>
    <rect x="20" y="72" width="48" height="6" fill="#569CD6" opacity="0.7"/>
    <rect x="72" y="72" width="24" height="6" fill="#D9D1C5" opacity="0.4"/>
    <rect x="12" y="84" width="8" height="6" fill="#D4724E" opacity="0.8"/>
    <rect x="24" y="84" width="36" height="6" fill="#4EC9B0" opacity="0.7"/>
    <!-- Cursor -->
    <rect x="64" y="84" width="6" height="8" fill="#4EC9B0" opacity="0.9"/>
    <!-- Screen glow -->
    <rect x="4" y="108" width="120" height="2" fill="#4EC9B0" opacity="0.1"/>
    <!-- Stand -->
    <rect x="52" y="120" width="24" height="8" fill="#2A2A2A"/>
    <rect x="40" y="128" width="48" height="8" fill="#333"/>
  </g>

  <!-- ========== CHAIR ========== -->
  <g transform="translate(464,176)">
    <rect width="88" height="80" rx="2" fill="#8A3B2E"/>
    <rect width="88" height="8" fill="#D4724E"/>
    <!-- Slats -->
    <rect x="16" y="16" width="8" height="56" fill="#6B2D22" opacity="0.3"/>
    <rect x="40" y="16" width="8" height="56" fill="#6B2D22" opacity="0.3"/>
    <rect x="64" y="16" width="8" height="56" fill="#6B2D22" opacity="0.3"/>
    <!-- Arms -->
    <rect x="-8" y="32" width="8" height="48" fill="#8A3B2E"/>
    <rect x="88" y="32" width="8" height="48" fill="#8A3B2E"/>
    <rect x="-8" y="32" width="8" height="8" fill="#D4724E"/>
    <rect x="88" y="32" width="8" height="8" fill="#D4724E"/>
    <!-- Seat -->
    <rect x="-8" y="80" width="104" height="16" fill="#6B2D22"/>
    <!-- Legs -->
    <rect x="0" y="96" width="8" height="40" fill="#6B2D22"/>
    <rect x="80" y="96" width="8" height="40" fill="#6B2D22"/>
  </g>

  <!-- ========== CAT ========== -->
  <g transform="translate(472,160)">
    <!-- Ear tips -->
    <rect x="8" y="0" width="8" height="8" fill="#F5F0E7"/>
    <rect x="56" y="0" width="8" height="8" fill="#F5F0E7"/>
    <!-- Ears with inner -->
    <rect x="0" y="8" width="8" height="8" fill="#F5F0E7"/>
    <rect x="8" y="8" width="8" height="8" fill="#D4724E"/>
    <rect x="16" y="8" width="8" height="8" fill="#F5F0E7"/>
    <rect x="48" y="8" width="8" height="8" fill="#F5F0E7"/>
    <rect x="56" y="8" width="8" height="8" fill="#D4724E"/>
    <rect x="64" y="8" width="8" height="8" fill="#F5F0E7"/>
    <!-- Head -->
    <rect x="8" y="16" width="56" height="8" fill="#F5F0E7"/>
    <rect x="0" y="24" width="72" height="8" fill="#F5F0E7"/>
    <!-- Eyes row -->
    <rect x="0" y="32" width="72" height="8" fill="#F5F0E7"/>
    <rect x="16" y="32" width="8" height="8" fill="#171614"/>
    <rect x="48" y="32" width="8" height="8" fill="#171614"/>
    <rect x="18" y="33" width="3" height="3" fill="#FFF" opacity="0.5"/>
    <rect x="50" y="33" width="3" height="3" fill="#FFF" opacity="0.5"/>
    <!-- Nose row -->
    <rect x="0" y="40" width="72" height="8" fill="#F5F0E7"/>
    <rect x="32" y="42" width="8" height="6" fill="#D4724E"/>
    <!-- Chin -->
    <rect x="8" y="48" width="56" height="8" fill="#F5F0E7"/>
    <!-- Neck -->
    <rect x="16" y="56" width="40" height="8" fill="#F5F0E7"/>
    <!-- Body -->
    <rect x="8" y="64" width="56" height="8" fill="#F5F0E7"/>
    <rect x="16" y="64" width="8" height="8" fill="#D9D1C5"/>
    <rect x="48" y="64" width="8" height="8" fill="#D9D1C5"/>
    <rect x="8" y="72" width="56" height="8" fill="#F5F0E7"/>
    <rect x="24" y="72" width="8" height="8" fill="#D9D1C5"/>
    <rect x="40" y="72" width="8" height="8" fill="#D9D1C5"/>
    <!-- Lower body -->
    <rect x="8" y="80" width="56" height="8" fill="#F5F0E7"/>
    <!-- Paws -->
    <rect x="8" y="88" width="16" height="8" fill="#F5F0E7"/>
    <rect x="48" y="88" width="16" height="8" fill="#F5F0E7"/>
    <!-- Tail -->
    <rect x="64" y="72" width="8" height="8" fill="#F5F0E7"/>
    <rect x="72" y="64" width="8" height="8" fill="#F5F0E7"/>
    <rect x="80" y="56" width="8" height="8" fill="#F5F0E7"/>
    <rect x="80" y="48" width="8" height="8" fill="#F5F0E7"/>
    <rect x="72" y="44" width="8" height="8" fill="#F5F0E7"/>
  </g>

  <!-- ========== ROBOT 1 (floor left, holding tablet) ========== -->
  <g transform="translate(328,248)">
    <rect x="20" y="0" width="8" height="8" fill="#569CD6"/>
    <rect x="16" y="4" width="16" height="4" fill="#569CD6"/>
    <rect x="8" y="8" width="32" height="8" fill="#D9D1C5"/>
    <rect x="8" y="16" width="32" height="8" fill="#D9D1C5"/>
    <rect x="12" y="16" width="8" height="8" fill="#4EC9B0"/>
    <rect x="28" y="16" width="8" height="8" fill="#4EC9B0"/>
    <rect x="8" y="24" width="32" height="8" fill="#D9D1C5"/>
    <rect x="16" y="26" width="16" height="4" fill="#B0A898"/>
    <rect x="16" y="32" width="16" height="4" fill="#B0A898"/>
    <rect x="4" y="36" width="40" height="8" fill="#D9D1C5"/>
    <rect x="8" y="44" width="32" height="8" fill="#D9D1C5"/>
    <rect x="16" y="40" width="16" height="8" fill="#B0A898" opacity="0.4"/>
    <rect x="12" y="52" width="8" height="12" fill="#B0A898"/>
    <rect x="28" y="52" width="8" height="12" fill="#B0A898"/>
    <!-- Tablet -->
    <rect x="-12" y="32" width="16" height="20" fill="#333"/>
    <rect x="-10" y="34" width="12" height="16" fill="#0C1810"/>
    <rect x="-8" y="38" width="8" height="2" fill="#4EC9B0"/>
    <rect x="-8" y="42" width="6" height="2" fill="#4EC9B0"/>
    <rect x="-8" y="46" width="7" height="2" fill="#569CD6"/>
  </g>

  <!-- ========== ROBOT 2 (on desk, carrying folder) ========== -->
  <g transform="translate(808,208)">
    <rect x="16" y="0" width="8" height="8" fill="#569CD6"/>
    <rect x="4" y="8" width="32" height="8" fill="#D9D1C5"/>
    <rect x="4" y="16" width="32" height="8" fill="#D9D1C5"/>
    <rect x="8" y="16" width="8" height="8" fill="#4EC9B0"/>
    <rect x="24" y="16" width="8" height="8" fill="#4EC9B0"/>
    <rect x="8" y="24" width="24" height="8" fill="#D9D1C5"/>
    <rect x="8" y="32" width="24" height="8" fill="#D9D1C5"/>
    <rect x="14" y="28" width="12" height="8" fill="#B0A898" opacity="0.4"/>
    <rect x="10" y="40" width="8" height="8" fill="#B0A898"/>
    <rect x="22" y="40" width="8" height="8" fill="#B0A898"/>
    <!-- Folder -->
    <rect x="36" y="20" width="20" height="16" fill="#D4724E"/>
    <rect x="36" y="20" width="20" height="4" fill="#B85A3A"/>
    <rect x="32" y="24" width="8" height="8" fill="#D9D1C5"/>
  </g>

  <!-- ========== ROBOT 3 (floor right, magnifying glass) ========== -->
  <g transform="translate(960,248)">
    <rect x="20" y="0" width="8" height="8" fill="#569CD6"/>
    <rect x="16" y="4" width="16" height="4" fill="#569CD6"/>
    <rect x="8" y="8" width="32" height="8" fill="#D9D1C5"/>
    <rect x="8" y="16" width="32" height="8" fill="#D9D1C5"/>
    <rect x="12" y="16" width="8" height="8" fill="#4EC9B0"/>
    <rect x="28" y="16" width="8" height="8" fill="#4EC9B0"/>
    <rect x="8" y="24" width="32" height="8" fill="#D9D1C5"/>
    <rect x="16" y="26" width="16" height="4" fill="#B0A898"/>
    <rect x="16" y="32" width="16" height="4" fill="#B0A898"/>
    <rect x="4" y="36" width="40" height="8" fill="#D9D1C5"/>
    <rect x="8" y="44" width="32" height="8" fill="#D9D1C5"/>
    <rect x="16" y="40" width="16" height="8" fill="#B0A898" opacity="0.4"/>
    <rect x="12" y="52" width="8" height="12" fill="#B0A898"/>
    <rect x="28" y="52" width="8" height="12" fill="#B0A898"/>
    <!-- Magnifying glass handle -->
    <rect x="44" y="32" width="8" height="16" fill="#8A3B2E"/>
    <!-- Lens frame -->
    <rect x="44" y="8" width="16" height="8" fill="#569CD6"/>
    <rect x="36" y="16" width="8" height="16" fill="#569CD6"/>
    <rect x="60" y="16" width="8" height="16" fill="#569CD6"/>
    <rect x="44" y="32" width="16" height="8" fill="#569CD6"/>
    <!-- Lens glass -->
    <rect x="44" y="16" width="16" height="16" fill="#569CD6" opacity="0.15"/>
  </g>

  <!-- ========== DESK ITEMS ========== -->
  <!-- Books stack -->
  <rect x="416" y="240" width="36" height="8" fill="#569CD6"/>
  <rect x="420" y="232" width="32" height="8" fill="#D4724E"/>
  <rect x="424" y="224" width="28" height="8" fill="#4EC9B0"/>

  <!-- Coffee mug -->
  <g transform="translate(744,232)">
    <rect x="0" y="0" width="24" height="8" fill="#8A3B2E"/>
    <rect x="0" y="8" width="24" height="8" fill="#8A3B2E"/>
    <rect x="0" y="16" width="24" height="8" fill="#6B2D22"/>
    <rect x="24" y="4" width="8" height="4" fill="#8A3B2E"/>
    <rect x="28" y="8" width="4" height="8" fill="#8A3B2E"/>
    <rect x="24" y="16" width="8" height="4" fill="#8A3B2E"/>
    <!-- Steam -->
    <rect x="6" y="-8" width="4" height="6" fill="#F5F0E7" opacity="0.15"/>
    <rect x="14" y="-12" width="4" height="8" fill="#F5F0E7" opacity="0.1"/>
  </g>

  <!-- Small plant -->
  <g transform="translate(872,216)">
    <rect x="4" y="32" width="24" height="8" fill="#8A3B2E"/>
    <rect x="0" y="28" width="32" height="4" fill="#D4724E"/>
    <rect x="12" y="8" width="8" height="24" fill="#3B7A5C"/>
    <rect x="4" y="8" width="8" height="12" fill="#4EC9B0"/>
    <rect x="20" y="4" width="8" height="12" fill="#4EC9B0"/>
    <rect x="12" y="0" width="8" height="8" fill="#4EC9B0"/>
  </g>

  <!-- Sticky notes on wall -->
  <rect x="388" y="144" width="28" height="24" fill="#F5F0E7" opacity="0.8"/>
  <rect x="392" y="148" width="16" height="2" fill="#D4724E" opacity="0.5"/>
  <rect x="392" y="154" width="20" height="2" fill="#D4724E" opacity="0.3"/>
  <rect x="392" y="160" width="12" height="2" fill="#D4724E" opacity="0.3"/>
  <rect x="420" y="136" width="24" height="20" fill="#4EC9B0" opacity="0.3"/>
  <rect x="424" y="140" width="16" height="2" fill="#233642" opacity="0.5"/>
  <rect x="424" y="146" width="12" height="2" fill="#233642" opacity="0.3"/>

  <!-- Ambient glow -->
  <rect x="580" y="248" width="168" height="8" fill="#4EC9B0" opacity="0.03"/>
  <rect x="100" y="320" width="200" height="32" fill="#569CD6" opacity="0.03"/>
</svg>
