<svg xmlns="http://www.w3.org/2000/svg" viewBox="0 0 120 80">
  <rect width="120" height="80" fill="#171614" rx="6"/>
  <!-- Flask body -->
  <rect x="44" y="20" width="32" height="8" fill="#569CD6" opacity="0.6"/>
  <rect x="40" y="28" width="40" height="8" fill="#569CD6" opacity="0.5"/>
  <rect x="36" y="36" width="48" height="8" fill="#569CD6" opacity="0.4"/>
  <rect x="36" y="44" width="48" height="8" fill="#569CD6" opacity="0.3"/>
  <rect x="36" y="52" width="48" height="8" fill="#233642"/>
  <!-- Flask neck -->
  <rect x="48" y="8" width="24" height="12" fill="#D9D1C5" opacity="0.5"/>
  <rect x="44" y="6" width="32" height="4" fill="#D9D1C5" opacity="0.7"/>
  <!-- Flask outline -->
  <rect x="36" y="60" width="48" height="4" fill="#569CD6" opacity="0.7"/>
  <!-- Small robot inside flask -->
  <rect x="52" y="32" width="16" height="4" fill="#D9D1C5"/>
  <rect x="52" y="36" width="16" height="4" fill="#D9D1C5"/>
  <rect x="54" y="36" width="4" height="4" fill="#4EC9B0"/>
  <rect x="62" y="36" width="4" height="4" fill="#4EC9B0"/>
  <rect x="52" y="40" width="16" height="4" fill="#D9D1C5"/>
  <rect x="54" y="44" width="4" height="4" fill="#B0A898"/>
  <rect x="62" y="44" width="4" height="4" fill="#B0A898"/>
  <!-- Bubbles -->
  <rect x="44" y="24" width="4" height="4" fill="#4EC9B0" opacity="0.6"/>
  <rect x="68" y="28" width="4" height="4" fill="#4EC9B0" opacity="0.5"/>
  <rect x="50" y="16" width="4" height="4" fill="#4EC9B0" opacity="0.4"/>
  <rect x="72" y="20" width="4" height="4" fill="#569CD6" opacity="0.5"/>
</svg>
