<svg xmlns="http://www.w3.org/2000/svg" viewBox="0 0 120 80">
  <rect width="120" height="80" fill="#171614" rx="6"/>
  <!-- Phone/tablet -->
  <rect x="16" y="16" width="28" height="48" rx="2" fill="#3D3530"/>
  <rect x="18" y="20" width="24" height="36" fill="#233642"/>
  <!-- Screen content -->
  <rect x="22" y="24" width="16" height="2" fill="#4EC9B0" opacity="0.7"/>
  <rect x="22" y="30" width="12" height="2" fill="#569CD6" opacity="0.6"/>
  <rect x="22" y="36" width="14" height="2" fill="#4EC9B0" opacity="0.5"/>
  <!-- Signal waves -->
  <rect x="48" y="32" width="8" height="4" fill="#D4724E" opacity="0.8"/>
  <rect x="56" y="28" width="4" height="4" fill="#D4724E" opacity="0.6"/>
  <rect x="56" y="36" width="4" height="4" fill="#D4724E" opacity="0.6"/>
  <rect x="60" y="24" width="4" height="4" fill="#D4724E" opacity="0.4"/>
  <rect x="60" y="32" width="4" height="4" fill="#D4724E" opacity="0.5"/>
  <rect x="60" y="40" width="4" height="4" fill="#D4724E" opacity="0.4"/>
  <rect x="64" y="20" width="4" height="4" fill="#D4724E" opacity="0.3"/>
  <rect x="64" y="28" width="4" height="4" fill="#D4724E" opacity="0.3"/>
  <rect x="64" y="36" width="4" height="4" fill="#D4724E" opacity="0.3"/>
  <rect x="64" y="44" width="4" height="4" fill="#D4724E" opacity="0.3"/>
  <!-- Terminal -->
  <rect x="76" y="16" width="32" height="24" rx="2" fill="#3D3530"/>
  <rect x="78" y="18" width="28" height="18" fill="#0C1810"/>
  <rect x="80" y="20" width="16" height="2" fill="#4EC9B0" opacity="0.8"/>
  <rect x="80" y="24" width="20" height="2" fill="#4EC9B0" opacity="0.6"/>
  <rect x="80" y="28" width="12" height="2" fill="#4EC9B0" opacity="0.7"/>
  <rect x="94" y="28" width="4" height="3" fill="#4EC9B0" opacity="0.9"/>
  <!-- Terminal stand -->
  <rect x="88" y="40" width="8" height="4" fill="#3D3530"/>
  <rect x="84" y="44" width="16" height="4" fill="#5A4A3E"/>
  <!-- Connection dot -->
  <rect x="72" y="32" width="4" height="4" fill="#FFD700" opacity="0.8"/>
</svg>
